<svg width="24" height="24" viewBox="0 0 24 24" fill="none" xmlns="http://www.w3.org/2000/svg">
<g id="golem-docs-logo">
<path id="Vector" d="M17.269 0L14.7507 2.49646C13.8967 1.89312 12.8533 1.53545 11.7261 1.53545C8.84537 1.53545 6.5 3.86031 6.5 6.71986C6.5 9.28316 8.38649 11.4183 10.8539 11.8302V13.7053C8.38649 14.1171 6.5 16.2523 6.5 18.8156C6.5 21.6733 8.84355 24 11.7261 24C14.6086 24 16.9522 21.6751 16.9522 18.8156C16.9522 16.2523 15.0657 14.1171 12.5983 13.7053V11.8302C15.0657 11.4183 16.9522 9.28316 16.9522 6.71986C16.9522 5.60169 16.5917 4.56661 15.9835 3.7194L18.5 1.22113L17.269 0ZM15.2096 18.8156C15.2096 20.7214 13.6472 22.2713 11.7261 22.2713C9.80501 22.2713 8.24264 20.7214 8.24264 18.8156C8.24264 16.9098 9.80501 15.3599 11.7261 15.3599C13.6472 15.3599 15.2096 16.9098 15.2096 18.8156ZM11.7261 10.1755C9.80501 10.1755 8.24264 8.62562 8.24264 6.71986C8.24264 4.81409 9.80501 3.26419 11.7261 3.26419C13.6472 3.26419 15.2096 4.81409 15.2096 6.71986C15.2096 8.62562 13.6472 10.1755 11.7261 10.1755Z" fill="#181EA9"/>
</g>
</svg>
