<svg width="63" height="30" viewBox="0 0 63 30" fill="none" xmlns="http://www.w3.org/2000/svg">
<path id="Vector" d="M20.3824 5.93929C17.3172 5.93929 14.8236 8.37843 14.8236 11.3765C14.8236 14.3745 17.3172 16.8135 20.3824 16.8135C23.4476 16.8135 25.9412 14.3746 25.9412 11.3765C25.9411 8.37843 23.4476 5.93929 20.3824 5.93929ZM20.3824 15.0012C18.3389 15.0012 16.6765 13.3752 16.6765 11.3765C16.6765 9.37783 18.3389 7.75178 20.3824 7.75178C22.4257 7.75178 24.0883 9.37777 24.0883 11.3765C24.0883 13.3752 22.4257 15.0012 20.3824 15.0012ZM29.6471 0.5H31.5V16.5416H29.6471V0.5ZM63 6.21124V16.5416H61.1472V8.02349H57.4412V16.5416H55.5882V8.02349H51.8823V16.5416H50.0295V6.21124H63ZM11.4548 4.328L8.77676 6.94722C7.86796 6.31363 6.7576 5.93941 5.55878 5.93941C2.49377 5.93923 0 8.37831 0 11.3764C0 14.0656 2.00678 16.3037 4.6323 16.7365V18.7028C2.00678 19.1357 0 21.3738 0 24.063C0 27.0609 2.49371 29.5 5.55878 29.5C8.62397 29.5 11.1176 27.0609 11.1176 24.063C11.1176 21.3738 9.11078 19.1357 6.48521 18.7028V16.7365C9.11072 16.3037 11.1176 14.0657 11.1176 11.3764C11.1176 10.2039 10.735 9.11776 10.0872 8.22893L12.7651 5.60953L11.4548 4.328ZM9.26466 24.063C9.26466 26.0615 7.60224 27.6877 5.55878 27.6877C3.5155 27.6877 1.85285 26.0615 1.85285 24.063C1.85285 22.0643 3.5155 20.4383 5.55878 20.4383C7.60224 20.4383 9.26466 22.0643 9.26466 24.063ZM5.55878 15.0011C3.5155 15.0011 1.85285 13.3752 1.85285 11.3765C1.85285 9.37777 3.5155 7.75172 5.55878 7.75172C7.60224 7.75172 9.26466 9.37771 9.26466 11.3765C9.26466 13.3752 7.60224 15.0011 5.55878 15.0011ZM40.8573 5.93935C39.2814 5.93935 37.8527 6.50348 36.8345 7.52776C35.8442 8.5244 35.2986 9.89109 35.2986 11.3765C35.2986 12.8702 35.8301 14.2353 36.7953 15.2203C37.8164 16.2626 39.221 16.8135 40.8573 16.8135C42.6166 16.8135 44.441 15.9761 45.397 14.7293L43.9147 13.6419C43.301 14.4423 42.0438 15.0013 40.8573 15.0013C38.9317 15.0013 37.555 13.902 37.2267 12.192H46.2308V11.2858C46.2308 9.84322 45.7093 8.50799 44.7623 7.52629C43.7749 6.50289 42.3882 5.93935 40.8573 5.93935ZM37.2713 10.3796C37.6703 8.79241 39.0341 7.75178 40.8573 7.75178C42.6137 7.75178 43.9214 8.79506 44.2797 10.3796H37.2713Z" fill="#0C0E55"/>
</svg>
