<svg xmlns="http://www.w3.org/2000/svg" width="101" height="61" viewBox="0 0 101 61" fill="none">
  <path d="M37.3176 19.6437C33.685 19.6437 30.7298 22.5809 30.7298 26.1911C30.7298 29.8013 33.685 32.7383 37.3176 32.7383C40.9502 32.7383 43.9054 29.8014 43.9054 26.1911C43.9054 22.5809 40.9502 19.6437 37.3176 19.6437ZM37.3176 30.556C34.8959 30.556 32.9257 28.598 32.9257 26.1912C32.9257 23.7844 34.8958 21.8263 37.3176 21.8263C39.7392 21.8263 41.7095 23.7843 41.7095 26.1912C41.7095 28.5979 39.7392 30.556 37.3176 30.556ZM48.2974 13.0938H50.4932V32.411H48.2974V13.0938ZM87.8244 19.9712V32.4109H85.6286V22.1535H81.2366V32.4109H79.0406V22.1535H74.6487V32.4109H72.4528V19.9712H87.8244ZM26.7374 17.7034L23.5636 20.8574C22.4866 20.0945 21.1706 19.6438 19.7499 19.6438C16.1175 19.6436 13.1621 22.5808 13.1621 26.191C13.1621 29.4294 15.5404 32.1245 18.6519 32.6456V35.0134C15.5404 35.5347 13.1621 38.2298 13.1621 41.4681C13.1621 45.0781 16.1174 48.0153 19.7499 48.0153C23.3825 48.0153 26.3377 45.0782 26.3377 41.4681C26.3377 38.2298 23.9594 35.5347 20.8478 35.0134V32.6456C23.9594 32.1245 26.3377 29.4294 26.3377 26.191C26.3377 24.7791 25.8843 23.4712 25.1166 22.4009L28.2902 19.2466L26.7374 17.7034ZM24.1418 41.4681C24.1418 43.8747 22.1717 45.833 19.7499 45.833C17.3284 45.833 15.3579 43.8747 15.3579 41.4681C15.3579 39.0613 17.3284 37.1033 19.7499 37.1033C22.1717 37.1033 24.1418 39.0613 24.1418 41.4681ZM19.7499 30.5559C17.3284 30.5559 15.3579 28.5979 15.3579 26.1911C15.3579 23.7843 17.3284 21.8262 19.7499 21.8262C22.1717 21.8262 24.1418 23.7842 24.1418 26.1911C24.1418 28.5979 22.1717 30.5559 19.7499 30.5559ZM61.5828 19.6438C59.7151 19.6438 58.022 20.3231 56.8153 21.5565C55.6416 22.7567 54.995 24.4024 54.995 26.1912C54.995 27.9898 55.6249 29.6338 56.7688 30.8198C57.9789 32.075 59.6435 32.7384 61.5827 32.7384C63.6677 32.7384 65.8299 31.7299 66.9629 30.2285L65.2061 28.9191C64.4789 29.883 62.9889 30.5561 61.5827 30.5561C59.3007 30.5561 57.6692 29.2323 57.2801 27.1731H67.9509V26.082C67.9509 24.3448 67.333 22.7369 66.2106 21.5548C65.0405 20.3224 63.3971 19.6438 61.5828 19.6438ZM57.3329 24.9907C57.8058 23.0794 59.422 21.8263 61.5828 21.8263C63.6643 21.8263 65.2141 23.0826 65.6387 24.9907H57.3329Z" fill="#181EA9"/>
</svg>