<svg width="40" height="40" viewBox="0 0 40 40" fill="none" xmlns="http://www.w3.org/2000/svg">
<circle cx="20" cy="20" r="20" fill="#8247E5"/>
<path d="M26.4291 15.4356C26.1874 15.3075 25.9186 15.2406 25.6458 15.2406C25.373 15.2406 25.1042 15.3075 24.8626 15.4356L21.2067 17.5774L18.7272 18.9401L15.1376 21.0818C14.8959 21.2099 14.6272 21.2769 14.3543 21.2769C14.0815 21.2769 13.8128 21.2099 13.5711 21.0818L10.7639 19.3949C10.5265 19.2574 10.329 19.0591 10.1914 18.8199C10.0537 18.5807 9.98072 18.309 9.97973 18.0322V14.7869C9.98251 14.5105 10.0563 14.2395 10.1937 14.0006C10.3312 13.7618 10.5277 13.5631 10.7639 13.4243L13.5711 11.8007C13.8128 11.6728 14.0816 11.6059 14.3543 11.6059C14.6271 11.6059 14.8959 11.6728 15.1376 11.8007L17.943 13.4877C18.1804 13.6252 18.3779 13.8235 18.5155 14.0627C18.6532 14.3019 18.7262 14.5735 18.7272 14.8504V16.994L21.2067 15.5643V13.3591C21.2044 13.0825 21.1311 12.8113 20.994 12.5721C20.8568 12.3329 20.6605 12.1339 20.4244 11.9946L15.2021 8.94502C14.9604 8.81691 14.6916 8.75 14.4188 8.75C14.146 8.75 13.8772 8.81691 13.6355 8.94502L8.28252 12.0617C8.04437 12.1811 7.8445 12.3663 7.70604 12.5959C7.56759 12.8255 7.4962 13.0901 7.50016 13.3591V19.4601C7.50294 19.7365 7.57669 20.0075 7.71416 20.2464C7.85164 20.4853 8.04811 20.6839 8.28431 20.8227L13.5711 23.8741C13.8128 24.0022 14.0815 24.0692 14.3543 24.0692C14.6272 24.0692 14.8959 24.0022 15.1376 23.8741L18.7272 21.7958L21.2067 20.3679L24.7963 18.2913C25.038 18.1632 25.3067 18.0963 25.5796 18.0963C25.8524 18.0963 26.1211 18.1632 26.3628 18.2913L29.17 19.9149C29.4074 20.0524 29.6049 20.2507 29.7425 20.4899C29.8802 20.7291 29.9532 21.0007 29.9542 21.2775V24.521C29.9517 24.7978 29.8781 25.0691 29.7406 25.3083C29.6031 25.5476 29.4065 25.7465 29.17 25.8855L26.4291 27.509C26.1874 27.6371 25.9186 27.704 25.6458 27.704C25.373 27.704 25.1042 27.6371 24.8626 27.509L22.0554 25.8855C21.8183 25.7478 21.6212 25.5494 21.4839 25.3102C21.3465 25.071 21.2738 24.7995 21.273 24.5228V22.4463L18.7916 23.8741V26.0159C18.7944 26.2924 18.8682 26.5633 19.0056 26.8022C19.1431 27.0411 19.3396 27.2397 19.5758 27.3786L24.8626 30.43C25.1042 30.5581 25.373 30.625 25.6458 30.625C25.9186 30.625 26.1874 30.5581 26.4291 30.43L31.7158 27.3786C31.9532 27.2411 32.1507 27.0428 32.2884 26.8036C32.426 26.5644 32.499 26.2927 32.5 26.0159V19.8497C32.4975 19.5729 32.4239 19.3016 32.2864 19.0624C32.1489 18.8231 31.9523 18.6242 31.7158 18.4852L26.4291 15.4356Z" fill="white"/>
</svg>
