<svg width="19" height="20" viewBox="0 0 19 20" fill="none" xmlns="http://www.w3.org/2000/svg">
<g id="Group 13">
<path id="Vector" d="M7.40678 4.42838C7.18804 4.39582 7.1788 4.39197 7.28176 4.37681C7.47904 4.34766 7.94485 4.38737 8.26587 4.46061C9.01526 4.6316 9.69719 5.06961 10.4251 5.84748L10.6185 6.05415L10.8951 6.01146C12.0605 5.8317 13.2461 5.97455 14.2378 6.41425C14.5106 6.53521 14.9407 6.77603 14.9944 6.83791C15.0116 6.85761 15.043 6.98457 15.0643 7.12002C15.1379 7.58865 15.1011 7.94788 14.9517 8.21615C14.8705 8.36217 14.8659 8.40842 14.9206 8.53337C14.9642 8.6331 15.0858 8.70688 15.2062 8.70674C15.4526 8.70641 15.7179 8.32404 15.8407 7.79202L15.8896 7.58071L15.9863 7.68582C16.5167 8.26269 16.9334 9.0494 17.0049 9.60938L17.0236 9.75535L16.9344 9.62264C16.781 9.39425 16.6268 9.23875 16.4294 9.11337C16.0734 8.88732 15.6971 8.81041 14.7005 8.75999C13.8004 8.71446 13.2909 8.64068 12.7858 8.48256C11.9263 8.2136 11.4931 7.85541 10.4721 6.56975C10.0187 5.99874 9.73841 5.68277 9.45962 5.42834C8.82611 4.85021 8.20361 4.54701 7.40678 4.42838Z" fill="#FF007A"/>
<path id="Vector_2" d="M15.1974 5.70332C15.2201 5.32069 15.2742 5.06827 15.3829 4.8378C15.4259 4.74655 15.4662 4.67188 15.4724 4.67188C15.4786 4.67188 15.46 4.73922 15.4309 4.82152C15.3518 5.04523 15.3389 5.35117 15.3933 5.70716C15.4624 6.15882 15.5017 6.22398 15.999 6.7119C16.2323 6.94075 16.5037 7.22937 16.602 7.35328L16.7809 7.57861L16.602 7.41757C16.3833 7.22067 15.8803 6.83664 15.7691 6.78173C15.6947 6.74493 15.6836 6.74554 15.6376 6.78946C15.5953 6.82992 15.5864 6.89069 15.5805 7.17808C15.5713 7.62597 15.5077 7.91347 15.3542 8.20094C15.2712 8.3564 15.2581 8.32323 15.3332 8.14775C15.3893 8.01672 15.395 7.95911 15.3946 7.52549C15.3938 6.65433 15.286 6.44489 14.6541 6.08609C14.494 5.9952 14.2302 5.8641 14.0679 5.79478C13.9056 5.72545 13.7767 5.66504 13.7814 5.66055C13.7993 5.64345 14.4156 5.81609 14.6636 5.90766C15.0326 6.0439 15.0935 6.06154 15.1383 6.04512C15.1683 6.03412 15.1828 5.95014 15.1974 5.70332Z" fill="#FF007A"/>
<path id="Vector_3" d="M7.83174 7.19352C7.38765 6.6067 7.1129 5.70693 7.17236 5.03432L7.19078 4.82617L7.29184 4.84389C7.4817 4.87713 7.80898 4.99407 7.96226 5.08341C8.38284 5.32858 8.56492 5.65137 8.75018 6.48027C8.80443 6.72303 8.87561 6.99777 8.90837 7.09081C8.96113 7.24053 9.16039 7.59023 9.3224 7.81736C9.43911 7.98091 9.3616 8.05843 9.10363 8.03607C8.70967 8.00193 8.17602 7.64845 7.83174 7.19352Z" fill="#FF007A"/>
<path id="Vector_4" d="M14.6589 11.5614C12.5835 10.7594 11.8525 10.0632 11.8525 8.88853C11.8525 8.71567 11.8588 8.57422 11.8663 8.57422C11.8738 8.57422 11.9542 8.63129 12.0447 8.70101C12.4656 9.02498 12.9368 9.16338 14.2415 9.34605C15.0092 9.45357 15.4412 9.5404 15.8398 9.66726C17.1065 10.0705 17.8902 10.8888 18.0771 12.0033C18.1314 12.3272 18.0995 12.9345 18.0115 13.2546C17.942 13.5074 17.7299 13.9631 17.6736 13.9806C17.658 13.9854 17.6427 13.9281 17.6387 13.85C17.6174 13.4315 17.397 13.024 17.027 12.7188C16.6063 12.3718 16.041 12.0955 14.6589 11.5614Z" fill="#FF007A"/>
<path id="Vector_5" d="M13.2017 11.8952C13.1757 11.7467 13.1306 11.557 13.1015 11.4737L13.0485 11.3223L13.1469 11.4282C13.283 11.5749 13.3906 11.7625 13.4817 12.0124C13.5513 12.2032 13.5591 12.2599 13.5586 12.5699C13.5581 12.8742 13.5494 12.938 13.4851 13.1097C13.3838 13.3804 13.2581 13.5724 13.0471 13.7785C12.668 14.1488 12.1806 14.3538 11.4773 14.4389C11.355 14.4537 10.9986 14.4786 10.6854 14.4942C9.89585 14.5336 9.37623 14.615 8.90934 14.7724C8.8422 14.795 8.78226 14.8088 8.7762 14.803C8.75729 14.7849 9.0752 14.603 9.33778 14.4816C9.708 14.3104 10.0765 14.217 10.9023 14.085C11.3102 14.0198 11.7315 13.9407 11.8385 13.9092C12.8486 13.612 13.3679 12.8448 13.2017 11.8952Z" fill="#FF007A"/>
<path id="Vector_6" d="M14.1532 13.5153C13.8774 12.9463 13.8141 12.397 13.9652 11.8847C13.9813 11.83 14.0073 11.7852 14.023 11.7852C14.0386 11.7852 14.1037 11.8189 14.1675 11.8602C14.2946 11.9423 14.5494 12.0806 15.2284 12.4359C16.0756 12.8792 16.5587 13.2225 16.8872 13.6148C17.1748 13.9583 17.3529 14.3495 17.4386 14.8266C17.4871 15.0968 17.4586 15.7471 17.3864 16.0192C17.1586 16.8772 16.6292 17.5511 15.8741 17.9444C15.7634 18.002 15.6641 18.0493 15.6534 18.0495C15.6427 18.0497 15.6829 17.9513 15.743 17.8309C15.997 17.3212 16.0259 16.8255 15.8339 16.2736C15.7163 15.9358 15.4765 15.5235 14.9924 14.8267C14.4296 14.0166 14.2916 13.801 14.1532 13.5153Z" fill="#FF007A"/>
<path id="Vector_7" d="M6.35771 16.5857C7.12788 15.9616 8.08612 15.5182 8.95903 15.3821C9.33521 15.3234 9.96187 15.3467 10.3102 15.4323C10.8686 15.5694 11.3681 15.8766 11.6279 16.2426C11.8818 16.6004 11.9907 16.9121 12.1041 17.6057C12.1488 17.8793 12.1975 18.154 12.2122 18.2162C12.2973 18.5757 12.4631 18.863 12.6684 19.0073C12.9946 19.2364 13.5563 19.2507 14.1087 19.0438C14.2025 19.0087 14.2839 18.9844 14.2897 18.9899C14.3097 19.009 14.0315 19.1878 13.8352 19.2819C13.5711 19.4085 13.3611 19.4575 13.0821 19.4575C12.576 19.4575 12.1559 19.2104 11.8053 18.7066C11.7364 18.6074 11.5813 18.3104 11.4608 18.0466C11.0907 17.2363 10.9079 16.9895 10.4781 16.7193C10.1041 16.4843 9.62179 16.4422 9.25894 16.6129C8.78231 16.8372 8.64932 17.4219 8.99071 17.7924C9.12636 17.9396 9.37939 18.0666 9.58629 18.0913C9.97332 18.1375 10.306 17.8549 10.306 17.4798C10.306 17.2363 10.2084 17.0973 9.96291 16.991C9.62759 16.8457 9.26718 17.0155 9.2689 17.3179C9.26965 17.4468 9.32813 17.5277 9.46277 17.5862C9.54915 17.6237 9.55117 17.6267 9.4807 17.6127C9.17305 17.5514 9.10097 17.1954 9.34835 16.9591C9.64534 16.6753 10.2595 16.8005 10.4704 17.1878C10.559 17.3505 10.5693 17.6745 10.492 17.8701C10.3191 18.308 9.81506 18.5382 9.30368 18.4129C8.95555 18.3276 8.8138 18.2352 8.39404 17.8202C7.66464 17.0991 7.38147 16.9593 6.32993 16.8018L6.12842 16.7716L6.35771 16.5857Z" fill="#FF007A"/>
<path id="Vector_8" fill-rule="evenodd" clip-rule="evenodd" d="M0.857757 0.431361C3.29362 3.26901 7.04896 7.68707 7.23542 7.93443C7.38934 8.13866 7.33142 8.32226 7.06772 8.46616C6.92106 8.54619 6.61955 8.62726 6.46858 8.62726C6.29785 8.62726 6.10551 8.54835 5.96544 8.4208C5.86641 8.33067 5.46684 7.75797 4.54439 6.38415C3.83858 5.33298 3.2479 4.46096 3.2318 4.44637C3.19455 4.41259 3.19519 4.41374 4.47243 6.60725C5.27442 7.98463 5.54516 8.47158 5.54516 8.5367C5.54516 8.66917 5.50753 8.73878 5.33729 8.92105C5.05348 9.22494 4.92663 9.56638 4.83505 10.2731C4.73235 11.0652 4.44367 11.6248 3.64362 12.5825C3.1753 13.1431 3.09866 13.2459 2.9805 13.4719C2.83163 13.7564 2.7907 13.9158 2.77412 14.2751C2.7566 14.655 2.79074 14.9004 2.91168 15.2636C3.01753 15.5816 3.12802 15.7915 3.41051 16.2116C3.65429 16.5739 3.7947 16.8433 3.7947 16.9486C3.7947 17.0325 3.81136 17.0326 4.18914 16.9507C5.09317 16.7547 5.82729 16.4101 6.24015 15.9878C6.49565 15.7264 6.55563 15.582 6.55758 15.2238C6.55885 14.9895 6.55028 14.9404 6.48431 14.8056C6.37689 14.5862 6.18133 14.4038 5.75031 14.121C5.18558 13.7504 4.94438 13.4521 4.87773 13.0419C4.82307 12.7052 4.88649 12.4677 5.1989 11.8393C5.52229 11.1887 5.60241 10.9115 5.65663 10.2558C5.69163 9.83211 5.74012 9.66503 5.86694 9.53095C5.99918 9.39108 6.11824 9.34375 6.44556 9.30081C6.97917 9.23083 7.31895 9.09833 7.59827 8.8513C7.84055 8.637 7.94194 8.43051 7.95752 8.11965L7.96931 7.88404L7.83392 7.73253C7.34359 7.18376 0.529388 0 0.49921 0C0.492766 0 0.654117 0.194127 0.857757 0.431361ZM4.06993 14.7049C4.1808 14.5165 4.1219 14.2742 3.93645 14.1559C3.76123 14.044 3.48903 14.0967 3.48903 14.2424C3.48903 14.2869 3.51467 14.3193 3.57241 14.3478C3.66961 14.3958 3.67668 14.4498 3.60019 14.5602C3.52272 14.6719 3.52898 14.7702 3.61782 14.8369C3.76104 14.9446 3.96375 14.8854 4.06993 14.7049Z" fill="#FF007A"/>
<path id="Vector_9" fill-rule="evenodd" clip-rule="evenodd" d="M8.30609 9.42481C8.0556 9.49866 7.81208 9.7535 7.73668 10.0207C7.6907 10.1837 7.7168 10.4697 7.78569 10.558C7.89696 10.7006 8.00457 10.7382 8.29598 10.7362C8.86644 10.7324 9.36239 10.4976 9.42005 10.204C9.46734 9.96333 9.2495 9.6298 8.94948 9.48339C8.79466 9.40785 8.4654 9.37788 8.30609 9.42481ZM8.973 9.92535C9.06098 9.80539 9.02249 9.67569 8.87288 9.588C8.58795 9.421 8.15703 9.55918 8.15703 9.81757C8.15703 9.94619 8.38172 10.0865 8.58772 10.0865C8.7248 10.0865 8.91242 10.008 8.973 9.92535Z" fill="#FF007A"/>
</g>
</svg>
